<?xml version="1.0" encoding="UTF-8" standalone="no"?>
<!DOCTYPE svg PUBLIC "-//W3C//DTD SVG 1.1//EN"
 "http://www.w3.org/Graphics/SVG/1.1/DTD/svg11.dtd">
<!-- Generated by graphviz version 8.0.1 (20230327.1645)
 -->
<!-- Title: G Pages: 1 -->
<svg width="1325pt" height="581pt"
 viewBox="0.00 0.00 1325.20 580.58" xmlns="http://www.w3.org/2000/svg" xmlns:xlink="http://www.w3.org/1999/xlink">
<g id="graph0" class="graph" transform="scale(1 1) rotate(0) translate(21.6 558.98)">
<title>G</title>
<polygon fill="#111111" stroke="none" points="-21.6,21.6 -21.6,-558.98 1303.6,-558.98 1303.6,21.6 -21.6,21.6"/>
<!-- index.ts -->
<g id="node1" class="node">
<title>index.ts</title>
<path fill="none" stroke="#c6c5fe" d="M55.33,-344.91C55.33,-344.91 7.67,-344.91 7.67,-344.91 3.83,-344.91 0,-341.08 0,-337.25 0,-337.25 0,-329.58 0,-329.58 0,-325.75 3.83,-321.91 7.67,-321.91 7.67,-321.91 55.33,-321.91 55.33,-321.91 59.17,-321.91 63,-325.75 63,-329.58 63,-329.58 63,-337.25 63,-337.25 63,-341.08 59.17,-344.91 55.33,-344.91"/>
<text text-anchor="middle" x="31.5" y="-329.71" font-family="Arial" font-size="14.00" fill="#c6c5fe">index.ts</text>
</g>
<!-- lib/appError/appError.tsx -->
<g id="node2" class="node">
<title>lib/appError/appError.tsx</title>
<path fill="none" stroke="#c6c5fe" d="M515.33,-526.91C515.33,-526.91 367.67,-526.91 367.67,-526.91 363.83,-526.91 360,-523.08 360,-519.25 360,-519.25 360,-511.58 360,-511.58 360,-507.75 363.83,-503.91 367.67,-503.91 367.67,-503.91 515.33,-503.91 515.33,-503.91 519.17,-503.91 523,-507.75 523,-511.58 523,-511.58 523,-519.25 523,-519.25 523,-523.08 519.17,-526.91 515.33,-526.91"/>
<text text-anchor="middle" x="441.5" y="-511.71" font-family="Arial" font-size="14.00" fill="#c6c5fe">lib/appError/appError.tsx</text>
</g>
<!-- index.ts&#45;&gt;lib/appError/appError.tsx -->
<g id="edge1" class="edge">
<title>index.ts&#45;&gt;lib/appError/appError.tsx</title>
<path fill="none" stroke="#757575" d="M33.53,-345.33C36.81,-375.37 49.95,-454.25 99,-489.41 179.72,-547.27 300.49,-540.7 374.68,-529.14"/>
<polygon fill="#757575" stroke="#757575" points="374.98,-532.47 384.28,-527.4 373.85,-525.56 374.98,-532.47"/>
</g>
<!-- lib/appFooter/appFooter.tsx -->
<g id="node3" class="node">
<title>lib/appFooter/appFooter.tsx</title>
<path fill="none" stroke="#c6c5fe" d="M524.33,-485.91C524.33,-485.91 358.67,-485.91 358.67,-485.91 354.83,-485.91 351,-482.08 351,-478.25 351,-478.25 351,-470.58 351,-470.58 351,-466.75 354.83,-462.91 358.67,-462.91 358.67,-462.91 524.33,-462.91 524.33,-462.91 528.17,-462.91 532,-466.75 532,-470.58 532,-470.58 532,-478.25 532,-478.25 532,-482.08 528.17,-485.91 524.33,-485.91"/>
<text text-anchor="middle" x="441.5" y="-470.71" font-family="Arial" font-size="14.00" fill="#c6c5fe">lib/appFooter/appFooter.tsx</text>
</g>
<!-- index.ts&#45;&gt;lib/appFooter/appFooter.tsx -->
<g id="edge2" class="edge">
<title>index.ts&#45;&gt;lib/appFooter/appFooter.tsx</title>
<path fill="none" stroke="#757575" d="M35.01,-345.33C41.04,-370.54 58.87,-429.06 99,-454.41 182.63,-507.24 302,-499.79 375.2,-488.14"/>
<polygon fill="#757575" stroke="#757575" points="375.36,-491.49 384.65,-486.4 374.21,-484.59 375.36,-491.49"/>
</g>
<!-- lib/appHeader/appHeader.tsx -->
<g id="node4" class="node">
<title>lib/appHeader/appHeader.tsx</title>
<path fill="none" stroke="#c6c5fe" d="M529.33,-403.91C529.33,-403.91 353.67,-403.91 353.67,-403.91 349.83,-403.91 346,-400.08 346,-396.25 346,-396.25 346,-388.58 346,-388.58 346,-384.75 349.83,-380.91 353.67,-380.91 353.67,-380.91 529.33,-380.91 529.33,-380.91 533.17,-380.91 537,-384.75 537,-388.58 537,-388.58 537,-396.25 537,-396.25 537,-400.08 533.17,-403.91 529.33,-403.91"/>
<text text-anchor="middle" x="441.5" y="-388.71" font-family="Arial" font-size="14.00" fill="#c6c5fe">lib/appHeader/appHeader.tsx</text>
</g>
<!-- index.ts&#45;&gt;lib/appHeader/appHeader.tsx -->
<g id="edge3" class="edge">
<title>index.ts&#45;&gt;lib/appHeader/appHeader.tsx</title>
<path fill="none" stroke="#757575" d="M51.5,-345.3C64.39,-352.74 82.1,-361.76 99,-366.41 176.14,-387.62 266.53,-393.72 334.93,-394.73"/>
<polygon fill="#757575" stroke="#757575" points="334.68,-398.24 344.72,-394.85 334.76,-391.24 334.68,-398.24"/>
</g>
<!-- lib/appLayout/appLayout.tsx -->
<g id="node5" class="node">
<title>lib/appLayout/appLayout.tsx</title>
<path fill="none" stroke="#c6c5fe" d="M276.33,-444.91C276.33,-444.91 106.67,-444.91 106.67,-444.91 102.83,-444.91 99,-441.08 99,-437.25 99,-437.25 99,-429.58 99,-429.58 99,-425.75 102.83,-421.91 106.67,-421.91 106.67,-421.91 276.33,-421.91 276.33,-421.91 280.17,-421.91 284,-425.75 284,-429.58 284,-429.58 284,-437.25 284,-437.25 284,-441.08 280.17,-444.91 276.33,-444.91"/>
<text text-anchor="middle" x="191.5" y="-429.71" font-family="Arial" font-size="14.00" fill="#c6c5fe">lib/appLayout/appLayout.tsx</text>
</g>
<!-- index.ts&#45;&gt;lib/appLayout/appLayout.tsx -->
<g id="edge4" class="edge">
<title>index.ts&#45;&gt;lib/appLayout/appLayout.tsx</title>
<path fill="none" stroke="#757575" d="M40.3,-345.17C51.47,-361.1 73.5,-389.39 99,-405.41 106.87,-410.36 115.67,-414.48 124.62,-417.9"/>
<polygon fill="#757575" stroke="#757575" points="123.15,-421.44 133.74,-421.47 125.47,-414.84 123.15,-421.44"/>
</g>
<!-- lib/appLogo/appLogo.tsx -->
<g id="node6" class="node">
<title>lib/appLogo/appLogo.tsx</title>
<path fill="none" stroke="#cfffac" d="M820.33,-363.91C820.33,-363.91 671.67,-363.91 671.67,-363.91 667.83,-363.91 664,-360.08 664,-356.25 664,-356.25 664,-348.58 664,-348.58 664,-344.75 667.83,-340.91 671.67,-340.91 671.67,-340.91 820.33,-340.91 820.33,-340.91 824.17,-340.91 828,-344.75 828,-348.58 828,-348.58 828,-356.25 828,-356.25 828,-360.08 824.17,-363.91 820.33,-363.91"/>
<text text-anchor="middle" x="746" y="-348.71" font-family="Arial" font-size="14.00" fill="#cfffac">lib/appLogo/appLogo.tsx</text>
</g>
<!-- index.ts&#45;&gt;lib/appLogo/appLogo.tsx -->
<g id="edge5" class="edge">
<title>index.ts&#45;&gt;lib/appLogo/appLogo.tsx</title>
<path fill="none" stroke="#757575" d="M63.12,-334.23C164.4,-336.93 491.37,-345.65 652.92,-349.96"/>
<polygon fill="#757575" stroke="#757575" points="652.7,-353.48 662.79,-350.25 652.88,-346.48 652.7,-353.48"/>
</g>
<!-- lib/table/table.tsx -->
<g id="node7" class="node">
<title>lib/table/table.tsx</title>
<path fill="none" stroke="#c6c5fe" d="M242.33,-206.91C242.33,-206.91 140.67,-206.91 140.67,-206.91 136.83,-206.91 133,-203.08 133,-199.25 133,-199.25 133,-191.58 133,-191.58 133,-187.75 136.83,-183.91 140.67,-183.91 140.67,-183.91 242.33,-183.91 242.33,-183.91 246.17,-183.91 250,-187.75 250,-191.58 250,-191.58 250,-199.25 250,-199.25 250,-203.08 246.17,-206.91 242.33,-206.91"/>
<text text-anchor="middle" x="191.5" y="-191.71" font-family="Arial" font-size="14.00" fill="#c6c5fe">lib/table/table.tsx</text>
</g>
<!-- index.ts&#45;&gt;lib/table/table.tsx -->
<g id="edge6" class="edge">
<title>index.ts&#45;&gt;lib/table/table.tsx</title>
<path fill="none" stroke="#757575" d="M38.83,-321.42C49.25,-302.58 71.63,-265.8 99,-242.41 113.62,-229.92 132.12,-219.62 148.66,-211.89"/>
<polygon fill="#757575" stroke="#757575" points="149.96,-214.69 157.65,-207.4 147.09,-208.3 149.96,-214.69"/>
</g>
<!-- lib/tableCell/tableCell.tsx -->
<g id="node8" class="node">
<title>lib/tableCell/tableCell.tsx</title>
<path fill="none" stroke="#c6c5fe" d="M820.33,-85.91C820.33,-85.91 671.67,-85.91 671.67,-85.91 667.83,-85.91 664,-82.08 664,-78.25 664,-78.25 664,-70.58 664,-70.58 664,-66.75 667.83,-62.91 671.67,-62.91 671.67,-62.91 820.33,-62.91 820.33,-62.91 824.17,-62.91 828,-66.75 828,-70.58 828,-70.58 828,-78.25 828,-78.25 828,-82.08 824.17,-85.91 820.33,-85.91"/>
<text text-anchor="middle" x="746" y="-70.71" font-family="Arial" font-size="14.00" fill="#c6c5fe">lib/tableCell/tableCell.tsx</text>
</g>
<!-- index.ts&#45;&gt;lib/tableCell/tableCell.tsx -->
<g id="edge7" class="edge">
<title>index.ts&#45;&gt;lib/tableCell/tableCell.tsx</title>
<path fill="none" stroke="#757575" d="M34.01,-321.6C39.94,-277.21 63.06,-121.35 99,-89.41 272.82,65.04 588.67,-20.79 702.6,-59.05"/>
<polygon fill="#757575" stroke="#757575" points="701.07,-62.57 711.67,-62.49 703.33,-55.95 701.07,-62.57"/>
</g>
<!-- lib/tableHeader/tableHeader.tsx -->
<g id="node9" class="node">
<title>lib/tableHeader/tableHeader.tsx</title>
<path fill="none" stroke="#ff6c60" d="M536.33,-247.91C536.33,-247.91 346.67,-247.91 346.67,-247.91 342.83,-247.91 339,-244.08 339,-240.25 339,-240.25 339,-232.58 339,-232.58 339,-228.75 342.83,-224.91 346.67,-224.91 346.67,-224.91 536.33,-224.91 536.33,-224.91 540.17,-224.91 544,-228.75 544,-232.58 544,-232.58 544,-240.25 544,-240.25 544,-244.08 540.17,-247.91 536.33,-247.91"/>
<text text-anchor="middle" x="441.5" y="-232.71" font-family="Arial" font-size="14.00" fill="#ff6c60">lib/tableHeader/tableHeader.tsx</text>
</g>
<!-- index.ts&#45;&gt;lib/tableHeader/tableHeader.tsx -->
<g id="edge8" class="edge">
<title>index.ts&#45;&gt;lib/tableHeader/tableHeader.tsx</title>
<path fill="none" stroke="#757575" d="M52.84,-321.49C65.69,-314.42 82.87,-305.81 99,-300.41 173.39,-275.52 260.32,-259.4 327.86,-249.57"/>
<polygon fill="#757575" stroke="#757575" points="328.13,-252.92 337.53,-248.04 327.13,-245.99 328.13,-252.92"/>
</g>
<!-- lib/tableHeaderActions/tableHeaderActions.tsx -->
<g id="node10" class="node">
<title>lib/tableHeaderActions/tableHeaderActions.tsx</title>
<path fill="none" stroke="#ff6c60" d="M885.33,-287.91C885.33,-287.91 606.67,-287.91 606.67,-287.91 602.83,-287.91 599,-284.08 599,-280.25 599,-280.25 599,-272.58 599,-272.58 599,-268.75 602.83,-264.91 606.67,-264.91 606.67,-264.91 885.33,-264.91 885.33,-264.91 889.17,-264.91 893,-268.75 893,-272.58 893,-272.58 893,-280.25 893,-280.25 893,-284.08 889.17,-287.91 885.33,-287.91"/>
<text text-anchor="middle" x="746" y="-272.71" font-family="Arial" font-size="14.00" fill="#ff6c60">lib/tableHeaderActions/tableHeaderActions.tsx</text>
</g>
<!-- index.ts&#45;&gt;lib/tableHeaderActions/tableHeaderActions.tsx -->
<g id="edge9" class="edge">
<title>index.ts&#45;&gt;lib/tableHeaderActions/tableHeaderActions.tsx</title>
<path fill="none" stroke="#757575" d="M63.12,-330.96C152.17,-323.84 415.67,-302.76 587.82,-288.99"/>
<polygon fill="#757575" stroke="#757575" points="588.08,-292.4 597.77,-288.11 587.53,-285.42 588.08,-292.4"/>
</g>
<!-- lib/tableRow/tableRow.tsx -->
<g id="node11" class="node">
<title>lib/tableRow/tableRow.tsx</title>
<path fill="none" stroke="#c6c5fe" d="M518.83,-88.91C518.83,-88.91 364.17,-88.91 364.17,-88.91 360.33,-88.91 356.5,-85.08 356.5,-81.25 356.5,-81.25 356.5,-73.58 356.5,-73.58 356.5,-69.75 360.33,-65.91 364.17,-65.91 364.17,-65.91 518.83,-65.91 518.83,-65.91 522.67,-65.91 526.5,-69.75 526.5,-73.58 526.5,-73.58 526.5,-81.25 526.5,-81.25 526.5,-85.08 522.67,-88.91 518.83,-88.91"/>
<text text-anchor="middle" x="441.5" y="-73.71" font-family="Arial" font-size="14.00" fill="#c6c5fe">lib/tableRow/tableRow.tsx</text>
</g>
<!-- index.ts&#45;&gt;lib/tableRow/tableRow.tsx -->
<g id="edge10" class="edge">
<title>index.ts&#45;&gt;lib/tableRow/tableRow.tsx</title>
<path fill="none" stroke="#757575" d="M33.99,-321.44C38.3,-291.92 53.53,-215.13 99,-174.41 166.83,-113.67 270.1,-90.73 345.32,-82.19"/>
<polygon fill="#757575" stroke="#757575" points="345.63,-85.57 355.21,-81.03 344.89,-78.61 345.63,-85.57"/>
</g>
<!-- lib/appError/appError.module.scss -->
<g id="node12" class="node">
<title>lib/appError/appError.module.scss</title>
<path fill="none" stroke="#cfffac" d="M848.83,-526.91C848.83,-526.91 643.17,-526.91 643.17,-526.91 639.33,-526.91 635.5,-523.08 635.5,-519.25 635.5,-519.25 635.5,-511.58 635.5,-511.58 635.5,-507.75 639.33,-503.91 643.17,-503.91 643.17,-503.91 848.83,-503.91 848.83,-503.91 852.67,-503.91 856.5,-507.75 856.5,-511.58 856.5,-511.58 856.5,-519.25 856.5,-519.25 856.5,-523.08 852.67,-526.91 848.83,-526.91"/>
<text text-anchor="middle" x="746" y="-511.71" font-family="Arial" font-size="14.00" fill="#cfffac">lib/appError/appError.module.scss</text>
</g>
<!-- lib/appError/appError.tsx&#45;&gt;lib/appError/appError.module.scss -->
<g id="edge11" class="edge">
<title>lib/appError/appError.tsx&#45;&gt;lib/appError/appError.module.scss</title>
<path fill="none" stroke="#757575" d="M523.17,-515.41C554.12,-515.41 590.16,-515.41 624.08,-515.41"/>
<polygon fill="#757575" stroke="#757575" points="624.01,-518.91 634.01,-515.41 624.01,-511.91 624.01,-518.91"/>
</g>
<!-- lib/appFooter/appFooter.module.scss -->
<g id="node13" class="node">
<title>lib/appFooter/appFooter.module.scss</title>
<path fill="none" stroke="#cfffac" d="M857.83,-485.91C857.83,-485.91 634.17,-485.91 634.17,-485.91 630.33,-485.91 626.5,-482.08 626.5,-478.25 626.5,-478.25 626.5,-470.58 626.5,-470.58 626.5,-466.75 630.33,-462.91 634.17,-462.91 634.17,-462.91 857.83,-462.91 857.83,-462.91 861.67,-462.91 865.5,-466.75 865.5,-470.58 865.5,-470.58 865.5,-478.25 865.5,-478.25 865.5,-482.08 861.67,-485.91 857.83,-485.91"/>
<text text-anchor="middle" x="746" y="-470.71" font-family="Arial" font-size="14.00" fill="#cfffac">lib/appFooter/appFooter.module.scss</text>
</g>
<!-- lib/appFooter/appFooter.tsx&#45;&gt;lib/appFooter/appFooter.module.scss -->
<g id="edge12" class="edge">
<title>lib/appFooter/appFooter.tsx&#45;&gt;lib/appFooter/appFooter.module.scss</title>
<path fill="none" stroke="#757575" d="M532.44,-474.41C558.54,-474.41 587.57,-474.41 615.58,-474.41"/>
<polygon fill="#757575" stroke="#757575" points="615.26,-477.91 625.26,-474.41 615.26,-470.91 615.26,-477.91"/>
</g>
<!-- lib/appHeader/appHeader.tsx&#45;&gt;lib/appLogo/appLogo.tsx -->
<g id="edge14" class="edge">
<title>lib/appHeader/appHeader.tsx&#45;&gt;lib/appLogo/appLogo.tsx</title>
<path fill="none" stroke="#757575" d="M532.85,-380.46C570.8,-375.45 614.9,-369.62 653.02,-364.57"/>
<polygon fill="#757575" stroke="#757575" points="653.15,-367.95 662.61,-363.17 652.24,-361.02 653.15,-367.95"/>
</g>
<!-- lib/appHeader/appHeader.module.scss -->
<g id="node14" class="node">
<title>lib/appHeader/appHeader.module.scss</title>
<path fill="none" stroke="#cfffac" d="M863.33,-404.91C863.33,-404.91 628.67,-404.91 628.67,-404.91 624.83,-404.91 621,-401.08 621,-397.25 621,-397.25 621,-389.58 621,-389.58 621,-385.75 624.83,-381.91 628.67,-381.91 628.67,-381.91 863.33,-381.91 863.33,-381.91 867.17,-381.91 871,-385.75 871,-389.58 871,-389.58 871,-397.25 871,-397.25 871,-401.08 867.17,-404.91 863.33,-404.91"/>
<text text-anchor="middle" x="746" y="-389.71" font-family="Arial" font-size="14.00" fill="#cfffac">lib/appHeader/appHeader.module.scss</text>
</g>
<!-- lib/appHeader/appHeader.tsx&#45;&gt;lib/appHeader/appHeader.module.scss -->
<g id="edge13" class="edge">
<title>lib/appHeader/appHeader.tsx&#45;&gt;lib/appHeader/appHeader.module.scss</title>
<path fill="none" stroke="#757575" d="M537.38,-392.73C560.4,-392.8 585.45,-392.88 609.93,-392.97"/>
<polygon fill="#757575" stroke="#757575" points="609.74,-396.47 619.75,-393 609.76,-389.47 609.74,-396.47"/>
</g>
<!-- lib/appLayout/appLayout.tsx&#45;&gt;lib/appError/appError.tsx -->
<g id="edge15" class="edge">
<title>lib/appLayout/appLayout.tsx&#45;&gt;lib/appError/appError.tsx</title>
<path fill="none" stroke="#757575" d="M212.5,-445.4C236.99,-459.53 280.13,-482.71 320,-495.41 329.27,-498.37 339.1,-500.91 348.97,-503.08"/>
<polygon fill="#757575" stroke="#757575" points="348.18,-506.7 358.68,-505.3 349.6,-499.85 348.18,-506.7"/>
</g>
<!-- lib/appLayout/appLayout.tsx&#45;&gt;lib/appFooter/appFooter.tsx -->
<g id="edge16" class="edge">
<title>lib/appLayout/appLayout.tsx&#45;&gt;lib/appFooter/appFooter.tsx</title>
<path fill="none" stroke="#757575" d="M264.9,-445.38C293.8,-450.16 327.26,-455.69 357.17,-460.64"/>
<polygon fill="#757575" stroke="#757575" points="356.57,-464.25 367.01,-462.43 357.72,-457.34 356.57,-464.25"/>
</g>
<!-- lib/appLayout/appLayout.tsx&#45;&gt;lib/appHeader/appHeader.tsx -->
<g id="edge17" class="edge">
<title>lib/appLayout/appLayout.tsx&#45;&gt;lib/appHeader/appHeader.tsx</title>
<path fill="none" stroke="#757575" d="M264.9,-421.44C293.8,-416.66 327.26,-411.13 357.17,-406.19"/>
<polygon fill="#757575" stroke="#757575" points="357.72,-409.48 367.01,-404.4 356.57,-402.57 357.72,-409.48"/>
</g>
<!-- lib/appLayout/appLayout.module.scss -->
<g id="node15" class="node">
<title>lib/appLayout/appLayout.module.scss</title>
<path fill="none" stroke="#cfffac" d="M555.33,-444.91C555.33,-444.91 327.67,-444.91 327.67,-444.91 323.83,-444.91 320,-441.08 320,-437.25 320,-437.25 320,-429.58 320,-429.58 320,-425.75 323.83,-421.91 327.67,-421.91 327.67,-421.91 555.33,-421.91 555.33,-421.91 559.17,-421.91 563,-425.75 563,-429.58 563,-429.58 563,-437.25 563,-437.25 563,-441.08 559.17,-444.91 555.33,-444.91"/>
<text text-anchor="middle" x="441.5" y="-429.71" font-family="Arial" font-size="14.00" fill="#cfffac">lib/appLayout/appLayout.module.scss</text>
</g>
<!-- lib/appLayout/appLayout.tsx&#45;&gt;lib/appLayout/appLayout.module.scss -->
<g id="edge18" class="edge">
<title>lib/appLayout/appLayout.tsx&#45;&gt;lib/appLayout/appLayout.module.scss</title>
<path fill="none" stroke="#757575" d="M284.49,-433.41C292.45,-433.41 300.59,-433.41 308.78,-433.41"/>
<polygon fill="#757575" stroke="#757575" points="308.56,-436.91 318.56,-433.41 308.56,-429.91 308.56,-436.91"/>
</g>
<!-- lib/table/table.tsx&#45;&gt;lib/tableHeader/tableHeader.tsx -->
<g id="edge21" class="edge">
<title>lib/table/table.tsx&#45;&gt;lib/tableHeader/tableHeader.tsx</title>
<path fill="none" stroke="#757575" d="M250.33,-204.97C282.24,-210.25 322.42,-216.89 357.61,-222.71"/>
<polygon fill="#757575" stroke="#757575" points="356.92,-226.31 367.36,-224.49 358.06,-219.4 356.92,-226.31"/>
</g>
<!-- lib/table/table.tsx&#45;&gt;lib/tableHeaderActions/tableHeaderActions.tsx -->
<g id="edge22" class="edge">
<title>lib/table/table.tsx&#45;&gt;lib/tableHeaderActions/tableHeaderActions.tsx</title>
<path fill="none" stroke="#757575" d="M211.03,-207.22C235.08,-221.83 278.83,-246.05 320,-256.41 406.89,-278.29 506.86,-283.92 588.01,-283.8"/>
<polygon fill="#757575" stroke="#757575" points="587.83,-287.29 597.82,-283.75 587.8,-280.29 587.83,-287.29"/>
</g>
<!-- lib/table/table.tsx&#45;&gt;lib/tableRow/tableRow.tsx -->
<g id="edge24" class="edge">
<title>lib/table/table.tsx&#45;&gt;lib/tableRow/tableRow.tsx</title>
<path fill="none" stroke="#757575" d="M209.46,-183.56C227.9,-170.63 258.19,-149.25 284,-130.41 300.15,-118.62 301.8,-111.71 320,-103.41 329.81,-98.94 340.43,-95.21 351.16,-92.12"/>
<polygon fill="#757575" stroke="#757575" points="351.71,-95.33 360.45,-89.35 349.89,-88.57 351.71,-95.33"/>
</g>
<!-- lib/table/table.module.scss -->
<g id="node16" class="node">
<title>lib/table/table.module.scss</title>
<path fill="none" stroke="#cfffac" d="M521.83,-206.91C521.83,-206.91 361.17,-206.91 361.17,-206.91 357.33,-206.91 353.5,-203.08 353.5,-199.25 353.5,-199.25 353.5,-191.58 353.5,-191.58 353.5,-187.75 357.33,-183.91 361.17,-183.91 361.17,-183.91 521.83,-183.91 521.83,-183.91 525.67,-183.91 529.5,-187.75 529.5,-191.58 529.5,-191.58 529.5,-199.25 529.5,-199.25 529.5,-203.08 525.67,-206.91 521.83,-206.91"/>
<text text-anchor="middle" x="441.5" y="-191.71" font-family="Arial" font-size="14.00" fill="#cfffac">lib/table/table.module.scss</text>
</g>
<!-- lib/table/table.tsx&#45;&gt;lib/table/table.module.scss -->
<g id="edge19" class="edge">
<title>lib/table/table.tsx&#45;&gt;lib/table/table.module.scss</title>
<path fill="none" stroke="#757575" d="M250.33,-195.41C277.73,-195.41 311.23,-195.41 342.43,-195.41"/>
<polygon fill="#757575" stroke="#757575" points="342.35,-198.91 352.35,-195.41 342.35,-191.91 342.35,-198.91"/>
</g>
<!-- lib/tableCell/tableCell.module.scss -->
<g id="node17" class="node">
<title>lib/tableCell/tableCell.module.scss</title>
<path fill="none" stroke="#cfffac" d="M1208.83,-126.91C1208.83,-126.91 1002.17,-126.91 1002.17,-126.91 998.33,-126.91 994.5,-123.08 994.5,-119.25 994.5,-119.25 994.5,-111.58 994.5,-111.58 994.5,-107.75 998.33,-103.91 1002.17,-103.91 1002.17,-103.91 1208.83,-103.91 1208.83,-103.91 1212.67,-103.91 1216.5,-107.75 1216.5,-111.58 1216.5,-111.58 1216.5,-119.25 1216.5,-119.25 1216.5,-123.08 1212.67,-126.91 1208.83,-126.91"/>
<text text-anchor="middle" x="1105.5" y="-111.71" font-family="Arial" font-size="14.00" fill="#cfffac">lib/tableCell/tableCell.module.scss</text>
</g>
<!-- lib/table/table.tsx&#45;&gt;lib/tableCell/tableCell.module.scss -->
<g id="edge20" class="edge">
<title>lib/table/table.tsx&#45;&gt;lib/tableCell/tableCell.module.scss</title>
<path fill="none" stroke="#757575" d="M250.41,-184.68C272.17,-180.96 297.16,-177.06 320,-174.41 573.55,-144.97 638.58,-156.1 893,-135.41 922.3,-133.03 953.86,-130.19 983.43,-127.41"/>
<polygon fill="#757575" stroke="#757575" points="983.6,-130.82 993.23,-126.39 982.95,-123.85 983.6,-130.82"/>
</g>
<!-- lib/tableRow/tableRow.module.scss -->
<g id="node18" class="node">
<title>lib/tableRow/tableRow.module.scss</title>
<path fill="none" stroke="#cfffac" d="M852.83,-126.91C852.83,-126.91 639.17,-126.91 639.17,-126.91 635.33,-126.91 631.5,-123.08 631.5,-119.25 631.5,-119.25 631.5,-111.58 631.5,-111.58 631.5,-107.75 635.33,-103.91 639.17,-103.91 639.17,-103.91 852.83,-103.91 852.83,-103.91 856.67,-103.91 860.5,-107.75 860.5,-111.58 860.5,-111.58 860.5,-119.25 860.5,-119.25 860.5,-123.08 856.67,-126.91 852.83,-126.91"/>
<text text-anchor="middle" x="746" y="-111.71" font-family="Arial" font-size="14.00" fill="#cfffac">lib/tableRow/tableRow.module.scss</text>
</g>
<!-- lib/table/table.tsx&#45;&gt;lib/tableRow/tableRow.module.scss -->
<g id="edge23" class="edge">
<title>lib/table/table.tsx&#45;&gt;lib/tableRow/tableRow.module.scss</title>
<path fill="none" stroke="#757575" d="M214.29,-183.47C239.08,-170.54 281.15,-150.54 320,-141.41 419.2,-118.09 534.8,-112.35 620.38,-112.01"/>
<polygon fill="#757575" stroke="#757575" points="620.19,-115.51 630.19,-112 620.18,-108.51 620.19,-115.51"/>
</g>
<!-- lib/tableCell/tableCell.tsx&#45;&gt;lib/tableCell/tableCell.module.scss -->
<g id="edge25" class="edge">
<title>lib/tableCell/tableCell.tsx&#45;&gt;lib/tableCell/tableCell.module.scss</title>
<path fill="none" stroke="#757575" d="M828.12,-83.72C875.73,-89.17 936.66,-96.16 989.19,-102.19"/>
<polygon fill="#757575" stroke="#757575" points="988.59,-105.76 998.92,-103.42 989.38,-98.8 988.59,-105.76"/>
</g>
<!-- lib/tableHeader/tableHeader.tsx&#45;&gt;lib/tableCell/tableCell.tsx -->
<g id="edge26" class="edge">
<title>lib/tableHeader/tableHeader.tsx&#45;&gt;lib/tableCell/tableCell.tsx</title>
<path fill="none" stroke="#757575" d="M544.44,-227.53C551.16,-224.33 557.45,-220.35 563,-215.41 604.92,-178.12 556.41,-130.94 599,-94.41 613.99,-81.55 633.22,-74.63 652.77,-71.24"/>
<polygon fill="#757575" stroke="#757575" points="653.22,-74.56 662.63,-69.7 652.24,-67.63 653.22,-74.56"/>
</g>
<!-- lib/tableHeader/tableHeader.tsx&#45;&gt;lib/tableHeaderActions/tableHeaderActions.tsx -->
<g id="edge28" class="edge">
<title>lib/tableHeader/tableHeader.tsx&#45;&gt;lib/tableHeaderActions/tableHeaderActions.tsx</title>
<path fill="none" stroke="#757575" d="M544.49,-243.48C590.53,-248.93 643.4,-256.21 683.28,-262.69"/>
<polygon fill="#757575" stroke="#757575" points="682.48,-266.27 692.91,-264.45 683.62,-259.36 682.48,-266.27"/>
</g>
<!-- lib/tableHeader/tableHeader.module.scss -->
<g id="node19" class="node">
<title>lib/tableHeader/tableHeader.module.scss</title>
<path fill="none" stroke="#cfffac" d="M869.83,-246.91C869.83,-246.91 622.17,-246.91 622.17,-246.91 618.33,-246.91 614.5,-243.08 614.5,-239.25 614.5,-239.25 614.5,-231.58 614.5,-231.58 614.5,-227.75 618.33,-223.91 622.17,-223.91 622.17,-223.91 869.83,-223.91 869.83,-223.91 873.67,-223.91 877.5,-227.75 877.5,-231.58 877.5,-231.58 877.5,-239.25 877.5,-239.25 877.5,-243.08 873.67,-246.91 869.83,-246.91"/>
<text text-anchor="middle" x="746" y="-231.71" font-family="Arial" font-size="14.00" fill="#cfffac">lib/tableHeader/tableHeader.module.scss</text>
</g>
<!-- lib/tableHeader/tableHeader.tsx&#45;&gt;lib/tableHeader/tableHeader.module.scss -->
<g id="edge27" class="edge">
<title>lib/tableHeader/tableHeader.tsx&#45;&gt;lib/tableHeader/tableHeader.module.scss</title>
<path fill="none" stroke="#757575" d="M544.49,-236.07C563.38,-236.01 583.41,-235.95 603.23,-235.88"/>
<polygon fill="#757575" stroke="#757575" points="603.22,-239.38 613.21,-235.84 603.2,-232.38 603.22,-239.38"/>
</g>
<!-- lib/tableHeaderActions/tableHeaderActions.tsx&#45;&gt;lib/tableHeader/tableHeader.tsx -->
<g id="edge29" class="edge">
<title>lib/tableHeaderActions/tableHeaderActions.tsx&#45;&gt;lib/tableHeader/tableHeader.tsx</title>
<path fill="none" stroke="#757575" d="M603.44,-264.43C568.55,-259.91 532.97,-254.81 504.16,-250.13"/>
<polygon fill="#757575" stroke="#757575" points="504.91,-246.54 494.47,-248.36 503.77,-253.44 504.91,-246.54"/>
</g>
<!-- lib/tableHeaderActions/tableHeaderActions.module.scss -->
<g id="node20" class="node">
<title>lib/tableHeaderActions/tableHeaderActions.module.scss</title>
<path fill="none" stroke="#cfffac" d="M1274.33,-287.91C1274.33,-287.91 936.67,-287.91 936.67,-287.91 932.83,-287.91 929,-284.08 929,-280.25 929,-280.25 929,-272.58 929,-272.58 929,-268.75 932.83,-264.91 936.67,-264.91 936.67,-264.91 1274.33,-264.91 1274.33,-264.91 1278.17,-264.91 1282,-268.75 1282,-272.58 1282,-272.58 1282,-280.25 1282,-280.25 1282,-284.08 1278.17,-287.91 1274.33,-287.91"/>
<text text-anchor="middle" x="1105.5" y="-272.71" font-family="Arial" font-size="14.00" fill="#cfffac">lib/tableHeaderActions/tableHeaderActions.module.scss</text>
</g>
<!-- lib/tableHeaderActions/tableHeaderActions.tsx&#45;&gt;lib/tableHeaderActions/tableHeaderActions.module.scss -->
<g id="edge30" class="edge">
<title>lib/tableHeaderActions/tableHeaderActions.tsx&#45;&gt;lib/tableHeaderActions/tableHeaderActions.module.scss</title>
<path fill="none" stroke="#757575" d="M893.44,-276.41C901.49,-276.41 909.62,-276.41 917.78,-276.41"/>
<polygon fill="#757575" stroke="#757575" points="917.51,-279.91 927.51,-276.41 917.51,-272.91 917.51,-279.91"/>
</g>
<!-- lib/tableRow/tableRow.tsx&#45;&gt;lib/tableCell/tableCell.tsx -->
<g id="edge31" class="edge">
<title>lib/tableRow/tableRow.tsx&#45;&gt;lib/tableCell/tableCell.tsx</title>
<path fill="none" stroke="#757575" d="M526.76,-76.58C565.92,-76.19 612.58,-75.73 652.68,-75.33"/>
<polygon fill="#757575" stroke="#757575" points="652.57,-78.82 662.54,-75.22 652.5,-71.82 652.57,-78.82"/>
</g>
<!-- lib/tableRow/tableRow.tsx&#45;&gt;lib/tableRow/tableRow.module.scss -->
<g id="edge32" class="edge">
<title>lib/tableRow/tableRow.tsx&#45;&gt;lib/tableRow/tableRow.module.scss</title>
<path fill="none" stroke="#757575" d="M526.76,-88C561.53,-92.36 602.21,-97.47 638.97,-102.09"/>
<polygon fill="#757575" stroke="#757575" points="638.37,-105.67 648.73,-103.44 639.25,-98.73 638.37,-105.67"/>
</g>
</g>
</svg>
