<?xml version="1.0" encoding="UTF-8" standalone="no"?>
<!DOCTYPE svg PUBLIC "-//W3C//DTD SVG 1.1//EN"
 "http://www.w3.org/Graphics/SVG/1.1/DTD/svg11.dtd">
<!-- Generated by graphviz version 8.0.1 (20230327.1645)
 -->
<!-- Title: G Pages: 1 -->
<svg width="2732pt" height="326pt"
 viewBox="0.00 0.00 2732.20 325.91" xmlns="http://www.w3.org/2000/svg" xmlns:xlink="http://www.w3.org/1999/xlink">
<g id="graph0" class="graph" transform="scale(1 1) rotate(0) translate(21.6 304.31)">
<title>G</title>
<polygon fill="#111111" stroke="none" points="-21.6,21.6 -21.6,-304.31 2710.6,-304.31 2710.6,21.6 -21.6,21.6"/>
<!-- ../__fixtures__/sampleData.json -->
<g id="node1" class="node">
<title>../__fixtures__/sampleData.json</title>
<path fill="none" stroke="#cfffac" d="M2681.33,-141.71C2681.33,-141.71 2490.67,-141.71 2490.67,-141.71 2486.83,-141.71 2483,-137.88 2483,-134.05 2483,-134.05 2483,-126.38 2483,-126.38 2483,-122.55 2486.83,-118.71 2490.67,-118.71 2490.67,-118.71 2681.33,-118.71 2681.33,-118.71 2685.17,-118.71 2689,-122.55 2689,-126.38 2689,-126.38 2689,-134.05 2689,-134.05 2689,-137.88 2685.17,-141.71 2681.33,-141.71"/>
<text text-anchor="middle" x="2586" y="-126.51" font-family="Arial" font-size="14.00" fill="#cfffac">../__fixtures__/sampleData.json</text>
</g>
<!-- app/App.tsx -->
<g id="node2" class="node">
<title>app/App.tsx</title>
<path fill="none" stroke="#c6c5fe" d="M620.83,-143.71C620.83,-143.71 548.17,-143.71 548.17,-143.71 544.33,-143.71 540.5,-139.88 540.5,-136.05 540.5,-136.05 540.5,-128.38 540.5,-128.38 540.5,-124.55 544.33,-120.71 548.17,-120.71 548.17,-120.71 620.83,-120.71 620.83,-120.71 624.67,-120.71 628.5,-124.55 628.5,-128.38 628.5,-128.38 628.5,-136.05 628.5,-136.05 628.5,-139.88 624.67,-143.71 620.83,-143.71"/>
<text text-anchor="middle" x="584.5" y="-128.51" font-family="Arial" font-size="14.00" fill="#c6c5fe">app/App.tsx</text>
</g>
<!-- constants/navigation.ts -->
<g id="node3" class="node">
<title>constants/navigation.ts</title>
<path fill="none" stroke="#cfffac" d="M1019.83,-178.71C1019.83,-178.71 881.17,-178.71 881.17,-178.71 877.33,-178.71 873.5,-174.88 873.5,-171.05 873.5,-171.05 873.5,-163.38 873.5,-163.38 873.5,-159.55 877.33,-155.71 881.17,-155.71 881.17,-155.71 1019.83,-155.71 1019.83,-155.71 1023.67,-155.71 1027.5,-159.55 1027.5,-163.38 1027.5,-163.38 1027.5,-171.05 1027.5,-171.05 1027.5,-174.88 1023.67,-178.71 1019.83,-178.71"/>
<text text-anchor="middle" x="950.5" y="-163.51" font-family="Arial" font-size="14.00" fill="#cfffac">constants/navigation.ts</text>
</g>
<!-- app/App.tsx&#45;&gt;constants/navigation.ts -->
<g id="edge1" class="edge">
<title>app/App.tsx&#45;&gt;constants/navigation.ts</title>
<path fill="none" stroke="#757575" d="M628.88,-136.52C659.4,-139.54 701.19,-143.66 738,-147.21 778.94,-151.16 824.35,-155.47 862.56,-159.07"/>
<polygon fill="#757575" stroke="#757575" points="861.85,-162.61 872.13,-160.06 862.51,-155.64 861.85,-162.61"/>
</g>
<!-- services/telemetry.ts -->
<g id="node4" class="node">
<title>services/telemetry.ts</title>
<path fill="none" stroke="#cfffac" d="M1012.83,-137.71C1012.83,-137.71 888.17,-137.71 888.17,-137.71 884.33,-137.71 880.5,-133.88 880.5,-130.05 880.5,-130.05 880.5,-122.38 880.5,-122.38 880.5,-118.55 884.33,-114.71 888.17,-114.71 888.17,-114.71 1012.83,-114.71 1012.83,-114.71 1016.67,-114.71 1020.5,-118.55 1020.5,-122.38 1020.5,-122.38 1020.5,-130.05 1020.5,-130.05 1020.5,-133.88 1016.67,-137.71 1012.83,-137.71"/>
<text text-anchor="middle" x="950.5" y="-122.51" font-family="Arial" font-size="14.00" fill="#cfffac">services/telemetry.ts</text>
</g>
<!-- app/App.tsx&#45;&gt;services/telemetry.ts -->
<g id="edge2" class="edge">
<title>app/App.tsx&#45;&gt;services/telemetry.ts</title>
<path fill="none" stroke="#757575" d="M628.68,-131.5C687.92,-130.52 795.45,-128.75 869.58,-127.53"/>
<polygon fill="#757575" stroke="#757575" points="869.32,-131.02 879.26,-127.35 869.21,-124.02 869.32,-131.02"/>
</g>
<!-- components/financialInstrumentsTable/financialInstrumentsTable.tsx -->
<g id="node5" class="node">
<title>components/financialInstrumentsTable/financialInstrumentsTable.tsx</title>
<path fill="none" stroke="#c6c5fe" d="M1155.33,-86.71C1155.33,-86.71 745.67,-86.71 745.67,-86.71 741.83,-86.71 738,-82.88 738,-79.05 738,-79.05 738,-71.38 738,-71.38 738,-67.55 741.83,-63.71 745.67,-63.71 745.67,-63.71 1155.33,-63.71 1155.33,-63.71 1159.17,-63.71 1163,-67.55 1163,-71.38 1163,-71.38 1163,-79.05 1163,-79.05 1163,-82.88 1159.17,-86.71 1155.33,-86.71"/>
<text text-anchor="middle" x="950.5" y="-71.51" font-family="Arial" font-size="14.00" fill="#c6c5fe">components/financialInstrumentsTable/financialInstrumentsTable.tsx</text>
</g>
<!-- components/financialInstrumentsTable/financialInstrumentsTableConfig.ts -->
<g id="node6" class="node">
<title>components/financialInstrumentsTable/financialInstrumentsTableConfig.ts</title>
<path fill="none" stroke="#c6c5fe" d="M1649.33,-201.71C1649.33,-201.71 1206.67,-201.71 1206.67,-201.71 1202.83,-201.71 1199,-197.88 1199,-194.05 1199,-194.05 1199,-186.38 1199,-186.38 1199,-182.55 1202.83,-178.71 1206.67,-178.71 1206.67,-178.71 1649.33,-178.71 1649.33,-178.71 1653.17,-178.71 1657,-182.55 1657,-186.38 1657,-186.38 1657,-194.05 1657,-194.05 1657,-197.88 1653.17,-201.71 1649.33,-201.71"/>
<text text-anchor="middle" x="1428" y="-186.51" font-family="Arial" font-size="14.00" fill="#c6c5fe">components/financialInstrumentsTable/financialInstrumentsTableConfig.ts</text>
</g>
<!-- components/financialInstrumentsTable/financialInstrumentsTable.tsx&#45;&gt;components/financialInstrumentsTable/financialInstrumentsTableConfig.ts -->
<g id="edge3" class="edge">
<title>components/financialInstrumentsTable/financialInstrumentsTable.tsx&#45;&gt;components/financialInstrumentsTable/financialInstrumentsTableConfig.ts</title>
<path fill="none" stroke="#757575" d="M1078.8,-87.18C1106.91,-91.67 1136.27,-97.81 1163,-106.21 1180.07,-111.58 1182.34,-117.7 1199,-124.21 1254.01,-145.72 1318.9,-163.83 1365.35,-175.61"/>
<polygon fill="#757575" stroke="#757575" points="1364.31,-179.21 1374.86,-178.25 1366.01,-172.42 1364.31,-179.21"/>
</g>
<!-- hooks/useDataSorting.ts -->
<g id="node7" class="node">
<title>hooks/useDataSorting.ts</title>
<path fill="none" stroke="#c6c5fe" d="M1502.33,-81.71C1502.33,-81.71 1353.67,-81.71 1353.67,-81.71 1349.83,-81.71 1346,-77.88 1346,-74.05 1346,-74.05 1346,-66.38 1346,-66.38 1346,-62.55 1349.83,-58.71 1353.67,-58.71 1353.67,-58.71 1502.33,-58.71 1502.33,-58.71 1506.17,-58.71 1510,-62.55 1510,-66.38 1510,-66.38 1510,-74.05 1510,-74.05 1510,-77.88 1506.17,-81.71 1502.33,-81.71"/>
<text text-anchor="middle" x="1428" y="-66.51" font-family="Arial" font-size="14.00" fill="#c6c5fe">hooks/useDataSorting.ts</text>
</g>
<!-- components/financialInstrumentsTable/financialInstrumentsTable.tsx&#45;&gt;hooks/useDataSorting.ts -->
<g id="edge4" class="edge">
<title>components/financialInstrumentsTable/financialInstrumentsTable.tsx&#45;&gt;hooks/useDataSorting.ts</title>
<path fill="none" stroke="#757575" d="M1163.18,-72.99C1223.32,-72.35 1285.71,-71.7 1334.71,-71.18"/>
<polygon fill="#757575" stroke="#757575" points="1334.63,-74.67 1344.59,-71.07 1334.56,-67.67 1334.63,-74.67"/>
</g>
<!-- hooks/useDummyData.ts -->
<g id="node8" class="node">
<title>hooks/useDummyData.ts</title>
<path fill="none" stroke="#c6c5fe" d="M2333.83,-141.71C2333.83,-141.71 2180.17,-141.71 2180.17,-141.71 2176.33,-141.71 2172.5,-137.88 2172.5,-134.05 2172.5,-134.05 2172.5,-126.38 2172.5,-126.38 2172.5,-122.55 2176.33,-118.71 2180.17,-118.71 2180.17,-118.71 2333.83,-118.71 2333.83,-118.71 2337.67,-118.71 2341.5,-122.55 2341.5,-126.38 2341.5,-126.38 2341.5,-134.05 2341.5,-134.05 2341.5,-137.88 2337.67,-141.71 2333.83,-141.71"/>
<text text-anchor="middle" x="2257" y="-126.51" font-family="Arial" font-size="14.00" fill="#c6c5fe">hooks/useDummyData.ts</text>
</g>
<!-- components/financialInstrumentsTable/financialInstrumentsTable.tsx&#45;&gt;hooks/useDummyData.ts -->
<g id="edge5" class="edge">
<title>components/financialInstrumentsTable/financialInstrumentsTable.tsx&#45;&gt;hooks/useDummyData.ts</title>
<path fill="none" stroke="#757575" d="M1127.57,-87.2C1151.57,-88.65 1175.89,-90.04 1199,-91.21 1553.91,-109.23 1976.25,-122.29 2161.27,-127.6"/>
<polygon fill="#757575" stroke="#757575" points="2160.95,-131.12 2171.04,-127.9 2161.15,-124.12 2160.95,-131.12"/>
</g>
<!-- components/financialInstrumentsTable/financialInstrumentsTableConfig.ts&#45;&gt;hooks/useDummyData.ts -->
<g id="edge9" class="edge">
<title>components/financialInstrumentsTable/financialInstrumentsTableConfig.ts&#45;&gt;hooks/useDummyData.ts</title>
<path fill="none" stroke="#757575" d="M1657.17,-190.99C1769.94,-189.34 1907.91,-184.3 2031,-171.21 2085.9,-165.38 2147.53,-153.79 2192.39,-144.41"/>
<polygon fill="#757575" stroke="#757575" points="2193.07,-147.64 2202.13,-142.14 2191.63,-140.79 2193.07,-147.64"/>
</g>
<!-- components/table/cellRenderers/cellRenderers.tsx -->
<g id="node9" class="node">
<title>components/table/cellRenderers/cellRenderers.tsx</title>
<path fill="none" stroke="#c6c5fe" d="M2013.83,-282.71C2013.83,-282.71 1710.17,-282.71 1710.17,-282.71 1706.33,-282.71 1702.5,-278.88 1702.5,-275.05 1702.5,-275.05 1702.5,-267.38 1702.5,-267.38 1702.5,-263.55 1706.33,-259.71 1710.17,-259.71 1710.17,-259.71 2013.83,-259.71 2013.83,-259.71 2017.67,-259.71 2021.5,-263.55 2021.5,-267.38 2021.5,-267.38 2021.5,-275.05 2021.5,-275.05 2021.5,-278.88 2017.67,-282.71 2013.83,-282.71"/>
<text text-anchor="middle" x="1862" y="-267.51" font-family="Arial" font-size="14.00" fill="#c6c5fe">components/table/cellRenderers/cellRenderers.tsx</text>
</g>
<!-- components/financialInstrumentsTable/financialInstrumentsTableConfig.ts&#45;&gt;components/table/cellRenderers/cellRenderers.tsx -->
<g id="edge6" class="edge">
<title>components/financialInstrumentsTable/financialInstrumentsTableConfig.ts&#45;&gt;components/table/cellRenderers/cellRenderers.tsx</title>
<path fill="none" stroke="#757575" d="M1474.01,-202.19C1526.31,-215.73 1615.38,-237.67 1693,-251.21 1706.85,-253.63 1721.4,-255.84 1735.9,-257.84"/>
<polygon fill="#757575" stroke="#757575" points="1735.06,-261.4 1745.44,-259.26 1735.99,-254.46 1735.06,-261.4"/>
</g>
<!-- components/table/comparators/sortByComparators.ts -->
<g id="node10" class="node">
<title>components/table/comparators/sortByComparators.ts</title>
<path fill="none" stroke="#c6c5fe" d="M2023.33,-161.71C2023.33,-161.71 1700.67,-161.71 1700.67,-161.71 1696.83,-161.71 1693,-157.88 1693,-154.05 1693,-154.05 1693,-146.38 1693,-146.38 1693,-142.55 1696.83,-138.71 1700.67,-138.71 1700.67,-138.71 2023.33,-138.71 2023.33,-138.71 2027.17,-138.71 2031,-142.55 2031,-146.38 2031,-146.38 2031,-154.05 2031,-154.05 2031,-157.88 2027.17,-161.71 2023.33,-161.71"/>
<text text-anchor="middle" x="1862" y="-146.51" font-family="Arial" font-size="14.00" fill="#c6c5fe">components/table/comparators/sortByComparators.ts</text>
</g>
<!-- components/financialInstrumentsTable/financialInstrumentsTableConfig.ts&#45;&gt;components/table/comparators/sortByComparators.ts -->
<g id="edge7" class="edge">
<title>components/financialInstrumentsTable/financialInstrumentsTableConfig.ts&#45;&gt;components/table/comparators/sortByComparators.ts</title>
<path fill="none" stroke="#757575" d="M1558.32,-178.24C1609.6,-173.49 1668.69,-168.02 1720.98,-163.18"/>
<polygon fill="#757575" stroke="#757575" points="1721.05,-166.59 1730.68,-162.19 1720.4,-159.62 1721.05,-166.59"/>
</g>
<!-- components/table/rowRenderers/rowRenderers.tsx -->
<g id="node11" class="node">
<title>components/table/rowRenderers/rowRenderers.tsx</title>
<path fill="none" stroke="#c6c5fe" d="M2015.33,-241.71C2015.33,-241.71 1708.67,-241.71 1708.67,-241.71 1704.83,-241.71 1701,-237.88 1701,-234.05 1701,-234.05 1701,-226.38 1701,-226.38 1701,-222.55 1704.83,-218.71 1708.67,-218.71 1708.67,-218.71 2015.33,-218.71 2015.33,-218.71 2019.17,-218.71 2023,-222.55 2023,-226.38 2023,-226.38 2023,-234.05 2023,-234.05 2023,-237.88 2019.17,-241.71 2015.33,-241.71"/>
<text text-anchor="middle" x="1862" y="-226.51" font-family="Arial" font-size="14.00" fill="#c6c5fe">components/table/rowRenderers/rowRenderers.tsx</text>
</g>
<!-- components/financialInstrumentsTable/financialInstrumentsTableConfig.ts&#45;&gt;components/table/rowRenderers/rowRenderers.tsx -->
<g id="edge8" class="edge">
<title>components/financialInstrumentsTable/financialInstrumentsTableConfig.ts&#45;&gt;components/table/rowRenderers/rowRenderers.tsx</title>
<path fill="none" stroke="#757575" d="M1558.32,-202.19C1609.6,-206.93 1668.69,-212.41 1720.98,-217.25"/>
<polygon fill="#757575" stroke="#757575" points="1720.4,-220.8 1730.68,-218.24 1721.05,-213.83 1720.4,-220.8"/>
</g>
<!-- utilities/sorting.ts -->
<g id="node15" class="node">
<title>utilities/sorting.ts</title>
<path fill="none" stroke="#cfffac" d="M1912.33,-81.71C1912.33,-81.71 1811.67,-81.71 1811.67,-81.71 1807.83,-81.71 1804,-77.88 1804,-74.05 1804,-74.05 1804,-66.38 1804,-66.38 1804,-62.55 1807.83,-58.71 1811.67,-58.71 1811.67,-58.71 1912.33,-58.71 1912.33,-58.71 1916.17,-58.71 1920,-62.55 1920,-66.38 1920,-66.38 1920,-74.05 1920,-74.05 1920,-77.88 1916.17,-81.71 1912.33,-81.71"/>
<text text-anchor="middle" x="1862" y="-66.51" font-family="Arial" font-size="14.00" fill="#cfffac">utilities/sorting.ts</text>
</g>
<!-- hooks/useDataSorting.ts&#45;&gt;utilities/sorting.ts -->
<g id="edge13" class="edge">
<title>hooks/useDataSorting.ts&#45;&gt;utilities/sorting.ts</title>
<path fill="none" stroke="#757575" d="M1510.26,-70.21C1591.79,-70.21 1715.97,-70.21 1792.62,-70.21"/>
<polygon fill="#757575" stroke="#757575" points="1792.57,-73.71 1802.57,-70.21 1792.57,-66.71 1792.57,-73.71"/>
</g>
<!-- hooks/useDummyData.ts&#45;&gt;../__fixtures__/sampleData.json -->
<g id="edge14" class="edge">
<title>hooks/useDummyData.ts&#45;&gt;../__fixtures__/sampleData.json</title>
<path fill="none" stroke="#757575" d="M2341.79,-130.21C2381.39,-130.21 2429.24,-130.21 2472,-130.21"/>
<polygon fill="#757575" stroke="#757575" points="2471.75,-133.71 2481.75,-130.21 2471.75,-126.71 2471.75,-133.71"/>
</g>
<!-- components/table/cellRenderers/cellRenderers.module.scss -->
<g id="node12" class="node">
<title>components/table/cellRenderers/cellRenderers.module.scss</title>
<path fill="none" stroke="#cfffac" d="M2437.83,-282.71C2437.83,-282.71 2076.17,-282.71 2076.17,-282.71 2072.33,-282.71 2068.5,-278.88 2068.5,-275.05 2068.5,-275.05 2068.5,-267.38 2068.5,-267.38 2068.5,-263.55 2072.33,-259.71 2076.17,-259.71 2076.17,-259.71 2437.83,-259.71 2437.83,-259.71 2441.67,-259.71 2445.5,-263.55 2445.5,-267.38 2445.5,-267.38 2445.5,-275.05 2445.5,-275.05 2445.5,-278.88 2441.67,-282.71 2437.83,-282.71"/>
<text text-anchor="middle" x="2257" y="-267.51" font-family="Arial" font-size="14.00" fill="#cfffac">components/table/cellRenderers/cellRenderers.module.scss</text>
</g>
<!-- components/table/cellRenderers/cellRenderers.tsx&#45;&gt;components/table/cellRenderers/cellRenderers.module.scss -->
<g id="edge10" class="edge">
<title>components/table/cellRenderers/cellRenderers.tsx&#45;&gt;components/table/cellRenderers/cellRenderers.module.scss</title>
<path fill="none" stroke="#757575" d="M2022,-271.21C2033.65,-271.21 2045.49,-271.21 2057.34,-271.21"/>
<polygon fill="#757575" stroke="#757575" points="2057.22,-274.71 2067.22,-271.21 2057.22,-267.71 2057.22,-274.71"/>
</g>
<!-- components/table/comparators/sortByComparators.ts&#45;&gt;hooks/useDummyData.ts -->
<g id="edge11" class="edge">
<title>components/table/comparators/sortByComparators.ts&#45;&gt;hooks/useDummyData.ts</title>
<path fill="none" stroke="#757575" d="M2031.38,-141.64C2075.84,-139.38 2122.27,-137.02 2161.3,-135.03"/>
<polygon fill="#757575" stroke="#757575" points="2161.29,-138.49 2171.1,-134.48 2160.93,-131.5 2161.29,-138.49"/>
</g>
<!-- components/table/rowRenderers/rowRenderers.module.scss -->
<g id="node13" class="node">
<title>components/table/rowRenderers/rowRenderers.module.scss</title>
<path fill="none" stroke="#cfffac" d="M2439.33,-241.71C2439.33,-241.71 2074.67,-241.71 2074.67,-241.71 2070.83,-241.71 2067,-237.88 2067,-234.05 2067,-234.05 2067,-226.38 2067,-226.38 2067,-222.55 2070.83,-218.71 2074.67,-218.71 2074.67,-218.71 2439.33,-218.71 2439.33,-218.71 2443.17,-218.71 2447,-222.55 2447,-226.38 2447,-226.38 2447,-234.05 2447,-234.05 2447,-237.88 2443.17,-241.71 2439.33,-241.71"/>
<text text-anchor="middle" x="2257" y="-226.51" font-family="Arial" font-size="14.00" fill="#cfffac">components/table/rowRenderers/rowRenderers.module.scss</text>
</g>
<!-- components/table/rowRenderers/rowRenderers.tsx&#45;&gt;components/table/rowRenderers/rowRenderers.module.scss -->
<g id="edge12" class="edge">
<title>components/table/rowRenderers/rowRenderers.tsx&#45;&gt;components/table/rowRenderers/rowRenderers.module.scss</title>
<path fill="none" stroke="#757575" d="M2023.41,-230.21C2034.08,-230.21 2044.89,-230.21 2055.72,-230.21"/>
<polygon fill="#757575" stroke="#757575" points="2055.55,-233.71 2065.55,-230.21 2055.55,-226.71 2055.55,-233.71"/>
</g>
<!-- developerTools.ts -->
<g id="node14" class="node">
<title>developerTools.ts</title>
<path fill="none" stroke="#cfffac" d="M227.33,-143.71C227.33,-143.71 120.67,-143.71 120.67,-143.71 116.83,-143.71 113,-139.88 113,-136.05 113,-136.05 113,-128.38 113,-128.38 113,-124.55 116.83,-120.71 120.67,-120.71 120.67,-120.71 227.33,-120.71 227.33,-120.71 231.17,-120.71 235,-124.55 235,-128.38 235,-128.38 235,-136.05 235,-136.05 235,-139.88 231.17,-143.71 227.33,-143.71"/>
<text text-anchor="middle" x="174" y="-128.51" font-family="Arial" font-size="14.00" fill="#cfffac">developerTools.ts</text>
</g>
<!-- main.tsx -->
<g id="node16" class="node">
<title>main.tsx</title>
<path fill="none" stroke="#c6c5fe" d="M60.33,-102.71C60.33,-102.71 7.67,-102.71 7.67,-102.71 3.83,-102.71 0,-98.88 0,-95.05 0,-95.05 0,-87.38 0,-87.38 0,-83.55 3.83,-79.71 7.67,-79.71 7.67,-79.71 60.33,-79.71 60.33,-79.71 64.17,-79.71 68,-83.55 68,-87.38 68,-87.38 68,-95.05 68,-95.05 68,-98.88 64.17,-102.71 60.33,-102.71"/>
<text text-anchor="middle" x="34" y="-87.51" font-family="Arial" font-size="14.00" fill="#c6c5fe">main.tsx</text>
</g>
<!-- main.tsx&#45;&gt;developerTools.ts -->
<g id="edge15" class="edge">
<title>main.tsx&#45;&gt;developerTools.ts</title>
<path fill="none" stroke="#757575" d="M68.31,-101.45C79.63,-104.9 92.36,-108.75 104,-112.21 109.53,-113.86 115.31,-115.56 121.08,-117.24"/>
<polygon fill="#757575" stroke="#757575" points="119.8,-120.81 130.38,-120.25 121.76,-114.09 119.8,-120.81"/>
</g>
<!-- router/AppRouter.tsx -->
<g id="node17" class="node">
<title>router/AppRouter.tsx</title>
<path fill="none" stroke="#c6c5fe" d="M236.33,-102.71C236.33,-102.71 111.67,-102.71 111.67,-102.71 107.83,-102.71 104,-98.88 104,-95.05 104,-95.05 104,-87.38 104,-87.38 104,-83.55 107.83,-79.71 111.67,-79.71 111.67,-79.71 236.33,-79.71 236.33,-79.71 240.17,-79.71 244,-83.55 244,-87.38 244,-87.38 244,-95.05 244,-95.05 244,-98.88 240.17,-102.71 236.33,-102.71"/>
<text text-anchor="middle" x="174" y="-87.51" font-family="Arial" font-size="14.00" fill="#c6c5fe">router/AppRouter.tsx</text>
</g>
<!-- main.tsx&#45;&gt;router/AppRouter.tsx -->
<g id="edge16" class="edge">
<title>main.tsx&#45;&gt;router/AppRouter.tsx</title>
<path fill="none" stroke="#757575" d="M68.41,-91.21C75.92,-91.21 84.21,-91.21 92.74,-91.21"/>
<polygon fill="#757575" stroke="#757575" points="92.63,-94.71 102.63,-91.21 92.63,-87.71 92.63,-94.71"/>
</g>
<!-- styles.scss -->
<g id="node18" class="node">
<title>styles.scss</title>
<path fill="none" stroke="#cfffac" d="M207.33,-61.71C207.33,-61.71 140.67,-61.71 140.67,-61.71 136.83,-61.71 133,-57.88 133,-54.05 133,-54.05 133,-46.38 133,-46.38 133,-42.55 136.83,-38.71 140.67,-38.71 140.67,-38.71 207.33,-38.71 207.33,-38.71 211.17,-38.71 215,-42.55 215,-46.38 215,-46.38 215,-54.05 215,-54.05 215,-57.88 211.17,-61.71 207.33,-61.71"/>
<text text-anchor="middle" x="174" y="-46.51" font-family="Arial" font-size="14.00" fill="#cfffac">styles.scss</text>
</g>
<!-- main.tsx&#45;&gt;styles.scss -->
<g id="edge17" class="edge">
<title>main.tsx&#45;&gt;styles.scss</title>
<path fill="none" stroke="#757575" d="M68.31,-80.98C79.63,-77.52 92.36,-73.67 104,-70.21 109.97,-68.44 116.24,-66.59 122.47,-64.78"/>
<polygon fill="#757575" stroke="#757575" points="123.22,-67.91 131.84,-61.76 121.26,-61.19 123.22,-67.91"/>
</g>
<!-- router/routerConfig.tsx -->
<g id="node21" class="node">
<title>router/routerConfig.tsx</title>
<path fill="none" stroke="#c6c5fe" d="M423.33,-102.71C423.33,-102.71 287.67,-102.71 287.67,-102.71 283.83,-102.71 280,-98.88 280,-95.05 280,-95.05 280,-87.38 280,-87.38 280,-83.55 283.83,-79.71 287.67,-79.71 287.67,-79.71 423.33,-79.71 423.33,-79.71 427.17,-79.71 431,-83.55 431,-87.38 431,-87.38 431,-95.05 431,-95.05 431,-98.88 427.17,-102.71 423.33,-102.71"/>
<text text-anchor="middle" x="355.5" y="-87.51" font-family="Arial" font-size="14.00" fill="#c6c5fe">router/routerConfig.tsx</text>
</g>
<!-- router/AppRouter.tsx&#45;&gt;router/routerConfig.tsx -->
<g id="edge20" class="edge">
<title>router/AppRouter.tsx&#45;&gt;router/routerConfig.tsx</title>
<path fill="none" stroke="#757575" d="M244.4,-91.21C252.43,-91.21 260.68,-91.21 268.89,-91.21"/>
<polygon fill="#757575" stroke="#757575" points="268.63,-94.71 278.63,-91.21 268.63,-87.71 268.63,-94.71"/>
</g>
<!-- pages/ErrorPage.tsx -->
<g id="node19" class="node">
<title>pages/ErrorPage.tsx</title>
<path fill="none" stroke="#cfffac" d="M646.83,-102.71C646.83,-102.71 522.17,-102.71 522.17,-102.71 518.33,-102.71 514.5,-98.88 514.5,-95.05 514.5,-95.05 514.5,-87.38 514.5,-87.38 514.5,-83.55 518.33,-79.71 522.17,-79.71 522.17,-79.71 646.83,-79.71 646.83,-79.71 650.67,-79.71 654.5,-83.55 654.5,-87.38 654.5,-87.38 654.5,-95.05 654.5,-95.05 654.5,-98.88 650.67,-102.71 646.83,-102.71"/>
<text text-anchor="middle" x="584.5" y="-87.51" font-family="Arial" font-size="14.00" fill="#cfffac">pages/ErrorPage.tsx</text>
</g>
<!-- pages/FinancialInstrumentsPage.tsx -->
<g id="node20" class="node">
<title>pages/FinancialInstrumentsPage.tsx</title>
<path fill="none" stroke="#c6c5fe" d="M694.33,-61.71C694.33,-61.71 474.67,-61.71 474.67,-61.71 470.83,-61.71 467,-57.88 467,-54.05 467,-54.05 467,-46.38 467,-46.38 467,-42.55 470.83,-38.71 474.67,-38.71 474.67,-38.71 694.33,-38.71 694.33,-38.71 698.17,-38.71 702,-42.55 702,-46.38 702,-46.38 702,-54.05 702,-54.05 702,-57.88 698.17,-61.71 694.33,-61.71"/>
<text text-anchor="middle" x="584.5" y="-46.51" font-family="Arial" font-size="14.00" fill="#c6c5fe">pages/FinancialInstrumentsPage.tsx</text>
</g>
<!-- pages/FinancialInstrumentsPage.tsx&#45;&gt;components/financialInstrumentsTable/financialInstrumentsTable.tsx -->
<g id="edge18" class="edge">
<title>pages/FinancialInstrumentsPage.tsx&#45;&gt;components/financialInstrumentsTable/financialInstrumentsTable.tsx</title>
<path fill="none" stroke="#757575" d="M702.42,-58.24C722.16,-59.6 743.08,-61.04 764.05,-62.48"/>
<polygon fill="#757575" stroke="#757575" points="763.81,-66.04 774.02,-63.23 764.29,-59.05 763.81,-66.04"/>
</g>
<!-- pages/FinancialInstrumentsPage.tsx&#45;&gt;hooks/useDummyData.ts -->
<g id="edge19" class="edge">
<title>pages/FinancialInstrumentsPage.tsx&#45;&gt;hooks/useDummyData.ts</title>
<path fill="none" stroke="#757575" d="M686.86,-38.23C924.11,-12.75 1533.16,37.67 2031,-49.21 2101.43,-61.5 2178.91,-93.91 2222.09,-113.81"/>
<polygon fill="#757575" stroke="#757575" points="2220.25,-117.28 2230.79,-118.33 2223.21,-110.93 2220.25,-117.28"/>
</g>
<!-- router/routerConfig.tsx&#45;&gt;app/App.tsx -->
<g id="edge21" class="edge">
<title>router/routerConfig.tsx&#45;&gt;app/App.tsx</title>
<path fill="none" stroke="#757575" d="M418.41,-103.18C434.24,-106.18 451.24,-109.36 467,-112.21 487.36,-115.89 509.76,-119.78 529.42,-123.13"/>
<polygon fill="#757575" stroke="#757575" points="528.59,-126.71 539.04,-124.94 529.77,-119.81 528.59,-126.71"/>
</g>
<!-- router/routerConfig.tsx&#45;&gt;pages/ErrorPage.tsx -->
<g id="edge22" class="edge">
<title>router/routerConfig.tsx&#45;&gt;pages/ErrorPage.tsx</title>
<path fill="none" stroke="#757575" d="M431.46,-91.21C454.53,-91.21 480.02,-91.21 503.43,-91.21"/>
<polygon fill="#757575" stroke="#757575" points="503.38,-94.71 513.38,-91.21 503.38,-87.71 503.38,-94.71"/>
</g>
<!-- router/routerConfig.tsx&#45;&gt;pages/FinancialInstrumentsPage.tsx -->
<g id="edge23" class="edge">
<title>router/routerConfig.tsx&#45;&gt;pages/FinancialInstrumentsPage.tsx</title>
<path fill="none" stroke="#757575" d="M418.41,-79.25C434.24,-76.24 451.24,-73.06 467,-70.21 478.29,-68.17 490.2,-66.07 501.92,-64.03"/>
<polygon fill="#757575" stroke="#757575" points="502.36,-67.33 511.62,-62.17 501.16,-60.43 502.36,-67.33"/>
</g>
</g>
</svg>
